<?xml version="1.0" encoding="iso-8859-1"?>
<!-- Generator: Adobe Illustrator 19.0.0, SVG Export Plug-In . SVG Version: 6.00 Build 0)  -->
<svg version="1.1" id="Capa_1" xmlns="http://www.w3.org/2000/svg" xmlns:xlink="http://www.w3.org/1999/xlink" x="0px" y="0px"
	 viewBox="0 0 512 512" style="enable-background:new 0 0 512 512;" xml:space="preserve">
<path style="fill:#BDED7E;" d="M93.965,237.583v138.508c0,12.235-4.573,24.027-12.822,33.063l-22.913,25.1
	c-13.125,14.378-14.151,36.065-2.441,51.617l0,0c10.942,14.533,30.237,19.977,47.162,13.307l14.149-5.577
	c15.221-5.999,31.945-7.12,47.804-3.101c20.515,5.198,53.189,11.5,91.027,11.5s70.513-6.302,91.027-11.499
	c15.86-4.018,32.583-2.898,47.804,3.101l14.149,5.577c16.925,6.67,36.22,1.226,47.162-13.307l0.158-0.21
	c11.639-15.459,10.704-36.995-2.232-51.386l-22.636-25.184c-8.092-9.002-12.568-20.679-12.568-32.783V237.583
	c0-89.699-72.716-162.415-162.415-162.415l0,0C166.68,75.168,93.965,147.884,93.965,237.583z"/>
<g>
	<circle style="fill:#C8D0FF;" cx="361.01" cy="30" r="20"/>
	<circle style="fill:#C8D0FF;" cx="151.01" cy="30" r="20"/>
</g>
<circle style="fill:#FFFFFF;" cx="256.01" cy="256" r="68"/>
<circle style="fill:#FE7A77;" cx="256.01" cy="256" r="24"/>
<path d="M418.79,298c-2.63,0-5.199,1.069-7.069,2.93c-1.86,1.86-2.931,4.44-2.931,7.07s1.07,5.21,2.931,7.069
	c1.87,1.86,4.439,2.931,7.069,2.931c2.631,0,5.211-1.07,7.07-2.931c1.87-1.859,2.93-4.43,2.93-7.069c0-2.641-1.06-5.21-2.93-7.07
	C424,299.069,421.43,298,418.79,298z"/>
<path d="M461.437,427.592l-22.638-25.186c-6.451-7.178-10.005-16.446-10.005-26.098v-27.093c0-5.522-4.478-10-10-10s-10,4.478-10,10
	v27.093c0,14.597,5.374,28.613,15.131,39.468l22.637,25.185c9.714,10.808,10.421,27.077,1.664,38.707l-0.142,0.189
	c-8.208,10.902-22.808,15.023-35.507,10.018l-14.148-5.576c-17.334-6.831-35.98-8.04-53.927-3.491
	C324.348,485.913,292.621,492,255.931,492s-68.417-6.087-88.57-11.192c-17.946-4.547-36.594-3.341-53.928,3.491l-14.148,5.576
	c-12.697,5.005-27.299,0.884-35.506-10.018c-8.811-11.701-8.037-28.044,1.838-38.86l22.911-25.101
	c9.954-10.902,15.437-25.039,15.437-39.805V237.583c0-84.042,68.373-152.415,152.416-152.415
	c84.041,0,152.414,68.373,152.414,152.415V268.5c0,5.522,4.478,10,10,10s10-4.478,10-10v-30.917
	c0-51.099-22.353-97.069-57.784-128.669V58.28c11.639-4.128,20-15.243,20-28.28c0-16.542-13.458-30-30-30s-30,13.458-30,30
	c0,13.036,8.361,24.152,20,28.28v35.253c-27.184-17.918-59.708-28.365-94.631-28.365c-35.239,0-68.037,10.635-95.369,28.852V58.28
	c11.639-4.128,20-15.243,20-28.28c0-16.542-13.458-30-30-30s-30,13.458-30,30c0,13.036,8.361,24.152,20,28.28v51.289
	c-35.005,31.579-57.046,77.269-57.046,128.014v138.509c0,9.764-3.625,19.111-10.207,26.32l-22.912,25.101
	c-16.357,17.918-17.638,44.991-3.045,64.374c13.597,18.061,37.783,24.887,58.818,16.596l14.148-5.576
	c13.41-5.284,27.822-6.222,41.682-2.712C183.706,505.58,217.179,512,255.931,512c38.751,0,72.226-6.42,93.483-11.806
	c13.859-3.51,28.271-2.573,41.682,2.712l14.148,5.576c21.035,8.291,45.219,1.466,58.834-16.616l0.141-0.189
	C478.699,472.446,477.529,445.495,461.437,427.592z M361.01,20c5.514,0,10,4.486,10,10s-4.486,10-10,10s-10-4.486-10-10
	S355.497,20,361.01,20z M151.01,20c5.514,0,10,4.486,10,10s-4.486,10-10,10s-10-4.486-10-10S145.497,20,151.01,20z"/>
<path d="M311.165,200.846c-30.412-30.412-79.896-30.412-110.309,0s-30.412,79.896,0,110.309
	c15.206,15.206,35.181,22.809,55.154,22.809s39.948-7.603,55.154-22.809C341.577,280.742,341.577,231.258,311.165,200.846z
	 M297.022,297.012c-22.613,22.615-59.41,22.615-82.023,0c-22.614-22.614-22.614-59.409,0-82.023
	c11.307-11.308,26.159-16.961,41.012-16.961c14.853,0,29.705,5.653,41.012,16.961C319.635,237.603,319.635,274.397,297.022,297.012z
	"/>
<path d="M231.968,231.959c-13.255,13.256-13.255,34.826,0.001,48.083c6.628,6.628,15.334,9.941,24.041,9.941
	c8.707,0,17.413-3.313,24.041-9.941c0.001,0,0.001,0,0.001-0.001c13.255-13.256,13.255-34.826-0.001-48.083
	C266.796,218.703,245.227,218.702,231.968,231.959z M265.911,265.899c-5.461,5.459-14.343,5.458-19.8,0.001
	c-5.458-5.459-5.458-14.342-0.001-19.8c2.73-2.729,6.315-4.094,9.9-4.094s7.171,1.364,9.899,4.093
	C271.368,251.559,271.368,260.441,265.911,265.899z"/>
<path d="M256.915,132.323c5.522,0,10-4.478,10-10s-4.478-10-10-10l-0.439-0.001c-5.522,0-10,4.478-10,10s4.478,10,10,10
	L256.915,132.323z"/>
<path d="M344.051,171.953c1.977,2.248,4.738,3.396,7.514,3.396c2.345,0,4.7-0.82,6.6-2.49c4.147-3.647,4.553-9.966,0.906-14.113
	c-15.228-17.316-34.686-30.583-56.272-38.364c-5.198-1.875-10.926,0.82-12.799,6.016c-1.873,5.196,0.82,10.926,6.016,12.799
	C314.436,145.837,331.047,157.164,344.051,171.953z"/>
<path d="M303.854,379.144c-12.779,12.78-29.771,19.818-47.844,19.818s-35.064-7.038-47.844-19.818
	c-3.904-3.903-10.234-3.905-14.143,0c-3.905,3.905-3.905,10.237,0,14.143c16.557,16.557,38.57,25.676,61.986,25.676
	s45.43-9.119,61.986-25.676c3.905-3.905,3.905-10.237,0-14.143C314.09,375.239,307.76,375.239,303.854,379.144z"/>
<g>
</g>
<g>
</g>
<g>
</g>
<g>
</g>
<g>
</g>
<g>
</g>
<g>
</g>
<g>
</g>
<g>
</g>
<g>
</g>
<g>
</g>
<g>
</g>
<g>
</g>
<g>
</g>
<g>
</g>
</svg>
